#!OML:ASF \\sashay\E\Suitcase\Project 1\Capture day 1\Session 1\Male1.ASF
:FULLY-SPECIFIED
:DEGREES
546
root 0.867013 17.3562 3.79828 7.35577 7.62525 1.43781
lowerback 2.58117 -2.8092 -3.46303
upperback -0.400839 -3.81821 2.45388
thorax -1.46428 -1.87117 4.60506
lowerneck -12.5154 -2.71264 -7.12172
upperneck 14.7731 -2.89635 3.51614
head 6.7245 -1.49894 2.02458
rclavicle -1.42131e-014 2.38542e-014
rhumerus -62.0295 -38.27 -36.8009
rradius 11.9797
rwrist 19.2291
rhand -9.20764 15.4655
rfingers 7.12502
rthumb 16.7466 -13.8322
lclavicle -1.42131e-014 2.38542e-014
lhumerus -35.3318 2.61139 85.3404
lradius 36.4167
lwrist -3.78426
lhand -2.90874 43.2477
lfingers 7.12502
lthumb 22.8015 71.92
rfemur -27.2363 1.63919 20.1999
rtibia 18.9298
rfoot -1.31962 -10.7019
rtoes 16.1154
lfemur 10.4864 -6.26229 -23.0268
ltibia 18.9621
lfoot -2.08688 -19.3697
ltoes -4.85397
547
root 0.872891 17.3604 3.94811 7.08415 7.81694 1.49986
lowerback 3.01837 -3.03171 -3.27937
upperback -0.37796 -4.11993 2.42585
thorax -1.66907 -2.01897 4.50736
lowerneck -12.6098 -2.44333 -6.72066
upperneck 14.5796 -2.56538 3.32019
head 6.65158 -1.33103 1.92662
rclavicle 4.87022e-015 2.38542e-015
rhumerus -61.2932 -37.1429 -38.0626
rradius 12.0911
rwrist 18.4403
rhand -9.17954 14.8385
rfingers 7.12502
rthumb 16.7736 -14.4569
lclavicle 4.87022e-015 2.38542e-015
lhumerus -35.6991 3.6395 84.8651
lradius 35.4995
lwrist -4.62096
lhand -3.23493 41.7986
lfingers 7.12502
lthumb 22.4885 70.5091
rfemur -26.5142 1.25784 20.3004
rtibia 19.2605
rfoot -1.50241 -10.5517
rtoes 17.303
lfemur 10.2482 -6.37721 -23.0109
ltibia 20.5326
lfoot 0.0377831 -19.7802
ltoes -2.73174
548
root 0.849106 17.3807 4.10044 7.20399 7.69011 0.880832
lowerback 2.61942 -2.98031 -2.84158
upperback -0.267823 -4.02282 2.75728
thorax -1.34787 -1.98291 4.5726
lowerneck -12.6357 -2.3905 -6.8663
upperneck 14.3755 -2.48716 3.48297
head 6.59025 -1.28544 2.00977
rclavicle -5.23798e-014 -7.95139e-016
rhumerus -61.6981 -37.3851 -36.9563
rradius 11.6716
rwrist 19.444
rhand -9.97633 15.9956
rfingers 7.12502
rthumb 16.0064 -13.3632
lclavicle -5.23798e-014 -7.95139e-016
lhumerus -35.7947 3.56705 85.0273
lradius 34.8316
lwrist -4.89889
lhand -2.24614 42.7597
lfingers 7.12502
lthumb 23.4373 71.3523
rfemur -26.3402 1.84161 21.1088
rtibia 19.4919
rfoot -1.62845 -10.6762
rtoes 18.4954
lfemur 9.21227 -6.2693 -22.1169
ltibia 22.2454
lfoot 2.87179 -20.0548
ltoes -0.197163
549
root 0.841207 17.3891 4.24246 7.13988 7.78999 1.19118
lowerback 2.61681 -3.13184 -3.11006
upperback -0.0931147 -4.23541 2.68168
thorax -1.13178 -2.09584 4.64263
lowerneck -12.7231 -2.30477 -6.62004
upperneck 14.1164 -2.3848 3.33831
head 6.51174 -1.23144 1.93119
rclavicle -5.9536e-014 8.74653e-015
rhumerus -62.4112 -37.9329 -35.71
rradius 11.7882
rwrist 20.6997
rhand -9.69366 15.4898
rfingers 7.12502
rthumb 16.2786 -13.8469
lclavicle -5.9536e-014 8.74653e-015
lhumerus -35.6758 3.90588 84.7891
lradius 33.6676
lwrist -5.33738
lhand -2.19032 42.8781
lfingers 7.12502
lthumb 23.4908 71.4638
rfemur -25.8924 1.89914 20.8753
rtibia 19.8872
rfoot -1.84832 -10.5595
rtoes 19.4551
lfemur 8.55418 -6.32949 -22.2035
ltibia 23.9591
lfoot 5.50317 -20.3148
ltoes 2.5765
550
root 0.847892 17.402 4.38411 7.24827 8.13689 0.951536
lowerback 2.88461 -3.34115 -2.59862
upperback -0.459989 -4.49705 2.882
thorax -1.65582 -2.21197 4.60384
lowerneck -12.1471 -2.18872 -6.9537
upperneck 14.3192 -2.16235 3.07005
head 6.46829 -1.1713 1.92441
rclavicle -3.21037e-014 -7.15625e-015
rhumerus -61.901 -36.291 -36.7364
rradius 12.0221
rwrist 19.4114
rhand -9.78454 15.5079
rfingers 7.12502
rthumb 16.1911 -13.836
lclavicle -3.21037e-014 -7.15625e-015
lhumerus -36.6001 4.42073 84.6707
lradius 33.2819
lwrist -5.97575
lhand -1.99886 42.8471
lfingers 7.12502
lthumb 23.6745 71.4092
rfemur -25.6077 0.887377 21.4141
rtibia 20.0306
rfoot -1.95557 -9.72841
rtoes 21.3365
lfemur 7.31255 -6.44666 -21.7426
ltibia 26.036
lfoot 6.99267 -20.9041
ltoes 1.9935
551
root 0.820296 17.4162 4.53545 7.28881 8.29396 1.18202
lowerback 2.58977 -3.4524 -2.9938
upperback -0.188676 -4.65667 2.86206
thorax -1.16603 -2.30513 4.7752
lowerneck -12.8428 -2.21291 -6.68521
upperneck 13.8699 -2.27104 3.5565
head 6.45029 -1.15868 2.02149
rclavicle 2.88238e-014 -1.90833e-014
rhumerus -61.3167 -35.8288 -37.7747
rradius 12.2564
rwrist 18.6435
rhand -10.4889 15.1453
rfingers 7.12502
rthumb 15.5128 -14.2524
lclavicle 2.88238e-014 -1.90833e-014
lhumerus -36.3045 4.3143 84.5811
lradius 32.4754
lwrist -6.33693
lhand -1.81985 43.0727
lfingers 7.12502
lthumb 23.8462 71.6126
rfemur -25.2548 1.08096 21.3259
rtibia 20.4092
rfoot -2.42689 -10.1161
rtoes 20.387
lfemur 6.1927 -6.47115 -21.5875
ltibia 28.0926
lfoot 10.6332 -20.9453
ltoes 8.01485
552
root 0.80542 17.4248 4.67501 7.23392 8.33194 0.737355
lowerback 2.61388 -3.36402 -2.46835
upperback -0.231866 -4.52069 2.92467
thorax -1.27346 -2.23681 4.54649
lowerneck -12.0639 -1.96867 -6.44777
upperneck 14.0098 -1.916 2.79185
head 6.33401 -1.04459 1.7746
rclavicle 1.68967e-015 -7.95139e-016
rhumerus -61.8405 -35.6792 -37.3792
rradius 12.2012
rwrist 18.7842
rhand -10.2951 15.1664
rfingers 7.12502
rthumb 15.6995 -14.2168
lclavicle 1.68967e-015 -7.95139e-016
lhumerus -36.4626 3.56765 84.6783
lradius 31.6709
lwrist -6.66995
lhand -1.18237 42.8252
lfingers 7.12502
lthumb 24.4574 71.2838
rfemur -24.7316 1.16735 22.0119
rtibia 20.4735
rfoot -2.77071 -10.0558
rtoes 20.0798
lfemur 4.93172 -6.19302 -20.8956
ltibia 30.3448
lfoot 11.6607 -20.9227
ltoes 8.07936
553
root 0.790847 17.428 4.81924 7.33215 8.56076 0.579816
lowerback 2.48381 -3.47033 -2.29887
upperback -0.318848 -4.65308 3.07656
thorax -1.27827 -2.30276 4.60642
lowerneck -12.0325 -2.00606 -6.56056
upperneck 14.291 -1.96052 2.85292
head 6.42232 -1.07074 1.80967
rclavicle 5.65542e-014 -4.13472e-014
rhumerus -62.3685 -35.5892 -36.4219
rradius 12.2075
rwrist 19.6862
rhand -9.69732 14.1607
rfingers 7.12502
rthumb 16.2751 -15.1762
lclavicle 5.65542e-014 -4.13472e-014
lhumerus -36.9517 3.4256 84.7652
lradius 31.3761
lwrist -7.09638
lhand -0.460025 43.1821
lfingers 7.12502
lthumb 25.1497 71.5454
rfemur -24.3062 1.29355 22.2667
rtibia 20.4796
rfoot -3.6501 -10.2728
rtoes 21.9686
lfemur 3.67161 -6.38472 -20.4052
ltibia 32.6751
lfoot 14.2164 -20.8645
ltoes 11.9551
554
root 0.783723 17.4412 4.96612 7.03208 8.66225 -0.184363
lowerback 2.26765 -3.47211 -1.44234
upperback 0.0488119 -4.632 3.27256
thorax -0.832559 -2.30954 4.2978
lowerneck -12.0729 -2.00916 -6.49774
upperneck 14.2158 -1.94125 2.6597
head 6.40228 -1.07252 1.73856
rclavicle 1.96797e-014 -4.77083e-015
rhumerus -62.0089 -35.5218 -36.8059
rradius 12.2018
rwrist 19.4078
rhand -10.2101 15.3914
rfingers 7.12502
rthumb 15.7813 -13.9853
lclavicle 1.96797e-014 -4.77083e-015
lhumerus -36.5836 3.42089 84.7272
lradius 30.8095
lwrist -7.81877
lhand -0.299776 43.0441
lfingers 7.12502
lthumb 25.3032 71.3858
rfemur -23.4764 1.05929 23.3659
rtibia 20.3854
rfoot -3.8775 -10.004
rtoes 19.9429
lfemur 2.52195 -5.9904 -19.3302
ltibia 35.0559
lfoot 15.7635 -21.3291
ltoes 13.1994
